<?xml version="1.0" encoding="utf-8"?>
<!-- Svg Vector Icons : http://www.sfont.cn -->
<!DOCTYPE svg PUBLIC "-//W3C//DTD SVG 1.1//EN" "http://www.w3.org/Graphics/SVG/1.1/DTD/svg11.dtd">
<svg version="1.1" xmlns="http://www.w3.org/2000/svg" xmlns:xlink="http://www.w3.org/1999/xlink" x="0px" y="0px" viewBox="0 0 1000 1000" enable-background="new 0 0 1000 1000" xml:space="preserve">
<metadata> Svg Vector Icons : http://www.sfont.cn </metadata>
<g><path d="M500,10C229.8,10,10,229.8,10,500c0,270.2,219.8,490,490,490c270.2,0,490-219.8,490-490C990,229.8,770.2,10,500,10L500,10z M500,920C268.4,920,80,731.6,80,500C80,268.4,268.4,80,500,80c231.6,0,420,188.4,420,420C920,731.6,731.6,920,500,920L500,920z M641.2,500c19.4,0,35-15.7,35-35c0-19.3-15.6-35-35-35H535v-16.6L664.7,278c13.3-14,13.1-36.2-0.9-49.5c-13.9-13.3-35.9-12.8-49.3,1.2L503.4,346.5L385.7,229.1c-13.7-13.7-35.8-13.6-49.5,0.1c-13.6,13.7-14.3,35.8-0.6,49.5L465,408.4V430H361.3c-19.3,0-35,15.7-35,35c0,19.3,15.7,35,35,35H465v70H361.3c-19.3,0-35,15.6-35,35c0,19.4,15.7,35,35,35H465v104.1c0,19.4,15.7,35,35,35c19.3,0,35-15.6,35-35V640h106.2c19.4,0,35-15.6,35-35c0-19.4-15.6-35-35-35H535v-70H641.2L641.2,500z"/></g>
</svg>